<?xml version="1.0" encoding="UTF-8" standalone="no"?>
<svg
   xmlns:dc="http://purl.org/dc/elements/1.1/"
   xmlns:cc="http://creativecommons.org/ns#"
   xmlns:rdf="http://www.w3.org/1999/02/22-rdf-syntax-ns#"
   xmlns:svg="http://www.w3.org/2000/svg"
   xmlns="http://www.w3.org/2000/svg"
   xmlns:sodipodi="http://sodipodi.sourceforge.net/DTD/sodipodi-0.dtd"
   xmlns:inkscape="http://www.inkscape.org/namespaces/inkscape"
   enable-background="new 0 0 141.732 141.732"
   height="141.732px"
   id="Livello_1"
   version="1.1"
   viewBox="0 0 141.732 141.732"
   width="141.732px"
   xml:space="preserve"
   sodipodi:docname="icone1.svg"
   inkscape:version="0.92.3 (2405546, 2018-03-11)"><metadata
     id="metadata11"><rdf:RDF><cc:Work
         rdf:about=""><dc:format>image/svg+xml</dc:format><dc:type
           rdf:resource="http://purl.org/dc/dcmitype/StillImage" /></cc:Work></rdf:RDF></metadata><defs
     id="defs9" /><sodipodi:namedview
     pagecolor="#ffffff"
     bordercolor="#666666"
     borderopacity="1"
     objecttolerance="10"
     gridtolerance="10"
     guidetolerance="10"
     inkscape:pageopacity="0"
     inkscape:pageshadow="2"
     inkscape:window-width="651"
     inkscape:window-height="480"
     id="namedview7"
     showgrid="false"
     inkscape:zoom="1.6651145"
     inkscape:cx="70.865997"
     inkscape:cy="70.865997"
     inkscape:window-x="0"
     inkscape:window-y="27"
     inkscape:window-maximized="0"
     inkscape:current-layer="Livello_1" /><g
     id="Livello_110"
     style="fill:#ffffff"><path
       d="M95.35,50.645c0,13.98-11.389,25.322-25.438,25.322c-14.051,0-25.438-11.342-25.438-25.322   c0-13.984,11.389-25.322,25.438-25.322C83.964,25.322,95.35,36.66,95.35,50.645 M121.743,50.645C121.743,22.674,98.966,0,70.866,0   C42.768,0,19.989,22.674,19.989,50.645c0,12.298,4.408,23.574,11.733,32.345l39.188,56.283l39.761-57.104   c1.428-1.779,2.736-3.654,3.916-5.625l0.402-0.574h-0.066C119.253,68.516,121.743,59.874,121.743,50.645"
       id="path2"
       style="fill:#ffffff" /></g><g
     id="Livello_1_1_" /></svg>