<?xml version="1.0" encoding="UTF-8" standalone="no"?>
<svg
   xmlns:dc="http://purl.org/dc/elements/1.1/"
   xmlns:cc="http://creativecommons.org/ns#"
   xmlns:rdf="http://www.w3.org/1999/02/22-rdf-syntax-ns#"
   xmlns:svg="http://www.w3.org/2000/svg"
   xmlns="http://www.w3.org/2000/svg"
   xmlns:sodipodi="http://sodipodi.sourceforge.net/DTD/sodipodi-0.dtd"
   xmlns:inkscape="http://www.inkscape.org/namespaces/inkscape"
   enable-background="new 0 0 32 32"
   height="32px"
   id="Layer_1"
   version="1.1"
   viewBox="0 0 32 32"
   width="32px"
   xml:space="preserve"
   sodipodi:docname="user.svg"
   inkscape:version="0.92.3 (2405546, 2018-03-11)"><metadata
     id="metadata13"><rdf:RDF><cc:Work
         rdf:about=""><dc:format>image/svg+xml</dc:format><dc:type
           rdf:resource="http://purl.org/dc/dcmitype/StillImage" /></cc:Work></rdf:RDF></metadata><defs
     id="defs11" /><sodipodi:namedview
     pagecolor="#ffffff"
     bordercolor="#666666"
     borderopacity="1"
     objecttolerance="10"
     gridtolerance="10"
     guidetolerance="10"
     inkscape:pageopacity="0"
     inkscape:pageshadow="2"
     inkscape:window-width="651"
     inkscape:window-height="480"
     id="namedview9"
     showgrid="false"
     inkscape:zoom="7.375"
     inkscape:cx="16"
     inkscape:cy="16"
     inkscape:window-x="0"
     inkscape:window-y="27"
     inkscape:window-maximized="0"
     inkscape:current-layer="Layer_1" /><g
     id="g6"
     style="fill:#ffffff"><path
       d="M22.417,14.836c-1.209,2.763-3.846,5.074-6.403,5.074c-3.122,0-5.39-2.284-6.599-5.046   c-7.031,3.642-6.145,12.859-6.145,12.859c0,1.262,0.994,1.445,2.162,1.445h10.581h10.565c1.17,0,2.167-0.184,2.167-1.445   C28.746,27.723,29.447,18.479,22.417,14.836z"
       fill="#515151"
       id="path2"
       style="fill:#ffffff" /><path
       d="M16.013,18.412c3.521,0,6.32-5.04,6.32-9.204c0-4.165-2.854-7.541-6.375-7.541   c-3.521,0-6.376,3.376-6.376,7.541C9.582,13.373,12.491,18.412,16.013,18.412z"
       fill="#515151"
       id="path4"
       style="fill:#ffffff" /></g></svg>